<?xml version="1.0" encoding="UTF-8"?>
<svg width="16px" height="16px" viewBox="0 0 16 16" version="1.1" xmlns="http://www.w3.org/2000/svg" xmlns:xlink="http://www.w3.org/1999/xlink">
    <!-- Generator: Sketch 52.4 (67378) - http://www.bohemiancoding.com/sketch -->
    <title>Combined Shape</title>
    <desc>Created with Sketch.</desc>
    <g id="New-Webapp" stroke="none" stroke-width="1" fill="none" fill-rule="evenodd">
        <g id="Desktop-HD-Copy-2" transform="translate(-1171.000000, -82.000000)" fill="#FFFFFF" fill-rule="nonzero">
            <g id="Conversion" transform="translate(820.000000, 70.000000)">
                <g id="Header">
                    <g id="Group-13" transform="translate(351.000000, 12.000000)">
                        <path d="M8,16 C3.581722,16 0,12.418278 0,8 C0,3.581722 3.581722,0 8,0 C12.418278,0 16,3.581722 16,8 C16,12.418278 12.418278,16 8,16 Z M6.8515625,9.84863281 L8.80664062,9.84863281 C8.81575525,9.50227691 8.86360634,9.21630972 8.95019531,8.99072266 C9.03678429,8.76513559 9.19173065,8.54524847 9.41503906,8.33105469 L10.2011719,7.59960938 C10.5338558,7.27604005 10.7753899,6.95931145 10.9257812,6.64941406 C11.0761726,6.33951668 11.1513672,5.9954446 11.1513672,5.6171875 C11.1513672,4.75129775 10.8722359,4.0836612 10.3139648,3.61425781 C9.75569382,3.14485442 8.96842956,2.91015625 7.95214844,2.91015625 C6.93131,2.91015625 6.13834918,3.16422272 5.57324219,3.67236328 C5.0081352,4.18050384 4.72102869,4.89029492 4.71191406,5.80175781 L7.02246094,5.80175781 C7.03157557,5.45995923 7.12044187,5.18880309 7.2890625,4.98828125 C7.45768313,4.78775941 7.67870957,4.6875 7.95214844,4.6875 C8.54459932,4.6875 8.84082031,5.03157208 8.84082031,5.71972656 C8.84082031,6.00228006 8.75309333,6.26090377 8.57763672,6.49560547 C8.40218011,6.73030716 8.14583502,6.98893088 7.80859375,7.27148438 C7.47135248,7.55403787 7.22753981,7.88785615 7.07714844,8.27294922 C6.92675706,8.65804229 6.8515625,9.1832649 6.8515625,9.84863281 Z M6.57128906,11.9267578 C6.57128906,12.2639991 6.6931954,12.5408518 6.93701172,12.7573242 C7.18082804,12.9737967 7.48502422,13.0820312 7.84960938,13.0820312 C8.21419453,13.0820312 8.51839071,12.9737967 8.76220703,12.7573242 C9.00602335,12.5408518 9.12792969,12.2639991 9.12792969,11.9267578 C9.12792969,11.5895165 9.00602335,11.3126638 8.76220703,11.0961914 C8.51839071,10.879719 8.21419453,10.7714844 7.84960938,10.7714844 C7.48502422,10.7714844 7.18082804,10.879719 6.93701172,11.0961914 C6.6931954,11.3126638 6.57128906,11.5895165 6.57128906,11.9267578 Z" id="Combined-Shape"></path>
                    </g>
                </g>
            </g>
        </g>
    </g>
</svg>